<svg width="19" height="13" viewBox="0 0 19 13" fill="none" xmlns="http://www.w3.org/2000/svg">
<path fill-rule="evenodd" clip-rule="evenodd" d="M5.20408 3.41895C5.58746 3.03195 5.58746 2.40507 5.20408 2.01807L5.19121 2.00488C4.80783 1.61788 4.1867 1.61788 3.80332 2.00488L0.287534 5.55298C-0.0958447 5.93998 -0.0958447 6.56808 0.287534 6.95508L3.80332 10.5029C4.1867 10.8899 4.80783 10.8899 5.19121 10.5029L5.20408 10.49C5.58746 10.103 5.58746 9.47611 5.20408 9.08911L3.09005 6.95508C2.70668 6.56808 2.70668 5.93998 3.09005 5.55298L5.20408 3.41895ZM18.7125 5.55298L15.1967 2.00488C14.8143 1.61788 14.1922 1.61788 13.8088 2.00488L13.7959 2.01807C13.4125 2.40507 13.4125 3.03195 13.7959 3.41895L15.9109 5.55298C16.2943 5.93998 16.2943 6.56808 15.9109 6.95508L13.7959 9.08911C13.4125 9.47611 13.4125 10.103 13.7959 10.49L13.8088 10.5029C14.1922 10.8899 14.8143 10.8899 15.1967 10.5029L18.7125 6.95508C19.0958 6.56808 19.0958 5.93998 18.7125 5.55298ZM12.8094 1.4082L7.74698 12.2388C7.58298 12.5793 7.29525 13 6.92404 13H6.90439C6.18259 13 5.71221 12.0198 6.03137 11.3589L11.0643 0.630859C11.2283 0.291369 11.8362 0.0251465 11.8362 0.0251465V0C12.8182 0 13.1275 0.747313 12.8094 1.4082Z" fill="url(#paint0_linear_28_3)"/>
<defs>
<linearGradient id="paint0_linear_28_3" x1="2" y1="4" x2="17" y2="10.5" gradientUnits="userSpaceOnUse">
<stop stop-color="#0687BE"/>
<stop offset="0.635" stop-color="#1D2CB3"/>
<stop offset="1" stop-color="#550594"/>
</linearGradient>
</defs>
</svg>
